<svg width="15" height="14" viewBox="0 0 15 14" fill="none" xmlns="http://www.w3.org/2000/svg">
<path d="M14.3932 1.2552H5.46895C5.22359 0.526484 4.53434 0 3.72395 0C2.91355 0 2.2243 0.526484 1.97895 1.2552H0.585937C0.262344 1.2552 0 1.51754 0 1.84113C0 2.16473 0.262344 2.42707 0.585937 2.42707H1.97898C2.22434 3.15578 2.91359 3.68227 3.72398 3.68227C4.53437 3.68227 5.22363 3.15578 5.46898 2.42707H14.3932C14.7168 2.42707 14.9792 2.16473 14.9792 1.84113C14.9792 1.51754 14.7168 1.2552 14.3932 1.2552ZM3.72395 2.51039C3.35492 2.51039 3.05469 2.21016 3.05469 1.84113C3.05469 1.47211 3.35492 1.17188 3.72395 1.17188C4.09297 1.17188 4.3932 1.47211 4.3932 1.84113C4.3932 2.21016 4.09297 2.51039 3.72395 2.51039Z" fill="white"/>
<path d="M14.3932 6.27607H13.0002C12.7548 5.54736 12.0655 5.02087 11.2552 5.02087C10.4448 5.02087 9.75555 5.54736 9.51019 6.27607H0.585937C0.262344 6.27607 0 6.53841 0 6.86201C0 7.1856 0.262344 7.44794 0.585937 7.44794H9.51019C9.75555 8.17666 10.4448 8.70314 11.2552 8.70314C12.0655 8.70314 12.7548 8.17666 13.0002 7.44794H14.3932C14.7168 7.44794 14.9792 7.1856 14.9792 6.86201C14.9792 6.53841 14.7168 6.27607 14.3932 6.27607ZM11.2552 7.53126C10.8862 7.53126 10.5859 7.23103 10.5859 6.86201C10.5859 6.49298 10.8862 6.19275 11.2552 6.19275C11.6242 6.19275 11.9245 6.49298 11.9245 6.86201C11.9245 7.23103 11.6242 7.53126 11.2552 7.53126Z" fill="white"/>
<path d="M14.3932 11.2969H7.97937C7.73402 10.5682 7.04476 10.0417 6.23437 10.0417C5.42398 10.0417 4.73473 10.5682 4.48938 11.2969H0.585937C0.262344 11.2969 0 11.5593 0 11.8829C0 12.2064 0.262344 12.4688 0.585937 12.4688H4.48938C4.73473 13.1975 5.42398 13.724 6.23437 13.724C7.04476 13.724 7.73402 13.1975 7.97937 12.4688H14.3932C14.7168 12.4688 14.9792 12.2064 14.9792 11.8829C14.9792 11.5593 14.7168 11.2969 14.3932 11.2969ZM6.23437 12.5521C5.86535 12.5521 5.56512 12.2519 5.56512 11.8829C5.56512 11.5139 5.86535 11.2136 6.23437 11.2136C6.6034 11.2136 6.90363 11.5138 6.90363 11.8829C6.90363 12.2519 6.6034 12.5521 6.23437 12.5521Z" fill="white"/>
</svg>
