<svg width="21" height="19" viewBox="0 0 21 19" fill="none" xmlns="http://www.w3.org/2000/svg">
<path fill-rule="evenodd" clip-rule="evenodd" d="M10.4761 2.69791L9.38909 1.61091C7.2412 -0.536971 3.7588 -0.536971 1.61091 1.61091C-0.536971 3.7588 -0.536971 7.2412 1.61091 9.38909L10.4497 18.2279L10.4515 18.2261L10.4779 18.2525L19.3167 9.41362C21.4646 7.26574 21.4646 3.78333 19.3167 1.63545C17.1688 -0.512435 13.6864 -0.512435 11.5385 1.63545L10.4761 2.69791ZM10.4515 15.3977L15.3878 10.4615L16.8386 9.06042L16.84 9.06187L17.9025 7.99941C19.2693 6.63258 19.2693 4.4165 17.9025 3.04966C16.5357 1.68283 14.3196 1.68283 12.9528 3.04966L10.4772 5.52526L10.4699 5.51802L10.4688 5.51909L7.97487 3.02513C6.60804 1.65829 4.39196 1.65829 3.02513 3.02513C1.65829 4.39196 1.65829 6.60804 3.02513 7.97487L5.56455 10.5143L5.56635 10.5125L10.4515 15.3977Z" fill="#B5A798"/>
</svg>
