<svg width="201" height="65" viewBox="0 0 201 65" fill="none" xmlns="http://www.w3.org/2000/svg">
<path d="M6.47573 52.1369V51.6818C7.47653 51.553 7.6195 51.4242 7.40925 50.8232C7.199 50.2221 6.88782 49.3119 6.56824 48.3244H3.20423C2.95192 49.0543 2.70803 49.7412 2.50619 50.4196C2.15297 51.4414 2.29594 51.6046 3.49017 51.7162V52.1713H0V51.6818C1.0008 51.5359 1.21946 51.4414 1.77452 50.0074L5.04602 41.4807L5.54222 41.3348C6.54301 44.1341 7.56904 47.2167 8.62029 50.0418C9.1249 51.4414 9.33515 51.5874 10.3696 51.6818V52.1369H6.47573ZM4.91987 43.4471C4.38163 44.8468 3.87703 46.255 3.36402 47.5945H6.31594L4.91987 43.4471Z" fill="white"/>
<path d="M12.1699 52.137V51.6819C13.3641 51.5875 13.5071 51.4844 13.5071 50.059V43.5932C13.5071 42.2279 13.3641 42.1334 12.1867 42.0304V41.5838H15.9797V42.0389C14.9452 42.1334 14.8023 42.1849 14.8023 43.5846V50.2222C14.8023 51.4758 14.878 51.5359 15.7694 51.5359H17.4514C18.3597 51.5359 18.4186 51.4672 18.4186 50.2222V43.576C18.4186 42.2279 18.2924 42.1334 17.258 42.0304V41.5838H20.9248V42.0389C19.7978 42.1334 19.7642 42.2364 19.7642 43.5846V50.2222C19.7642 51.4758 19.8399 51.5359 20.7313 51.5359H22.4134C23.3048 51.5359 23.3805 51.4587 23.3805 50.2222V43.576C23.3805 42.1935 23.2544 42.1334 22.0938 42.0304V41.5838H26.0297V42.0389C24.827 42.1334 24.7261 42.2193 24.7261 43.5846V50.1191C24.7261 51.5016 24.8523 51.596 26.1727 51.6991V52.1542L12.1699 52.137Z" fill="white"/>
<path d="M34.4811 52.137V51.6819C35.7006 51.5875 35.8435 51.5016 35.8435 50.1019V45.8687C35.8435 45.3363 35.8435 44.4089 35.9192 42.8461H35.8519L30.8059 51.347C30.6973 51.5332 30.6473 51.7491 30.663 51.9653V52.1456H27.9297V51.6819C29.1323 51.5875 29.2669 51.4672 29.2669 49.9645V43.5159C29.2669 42.2364 29.1407 42.1334 27.9297 42.0389V41.5838H31.9581V42.0389C30.7639 42.1334 30.6125 42.2364 30.6125 43.4987V47.4572C30.6125 48.2043 30.6125 49.0458 30.5452 50.6601L35.5324 42.2794C35.6428 42.1243 35.7044 41.9386 35.709 41.747V41.5838H38.5516V42.0389C37.3489 42.1334 37.206 42.2708 37.206 43.7134V50.1105C37.206 51.5102 37.3489 51.5875 38.5516 51.6905V52.1456L34.4811 52.137Z" fill="white"/>
<path d="M45.9774 52.137V51.6819C46.9614 51.5703 47.0707 51.4243 46.7679 50.8833C46.3727 50.2136 45.6578 49.0028 44.657 47.4486C43.8917 48.6508 43.2441 49.7756 42.7395 50.7288C42.3611 51.4243 42.4368 51.5875 43.5048 51.7163V52.1714H39.8633V51.6819C40.2225 51.6866 40.5779 51.6051 40.9007 51.4441C41.2235 51.283 41.5048 51.0468 41.7219 50.7545C42.1004 50.2222 42.8909 49.0887 44.3038 46.8733C43.4628 45.508 42.7311 44.2973 42.176 43.4386C41.5117 42.3824 41.2846 42.2021 40.1576 42.0733V41.5838H44.0431V42.0389C43.0927 42.1506 43.0591 42.2966 43.2946 42.7173C43.816 43.6447 44.4215 44.5892 45.1196 45.6712C45.784 44.615 46.2633 43.8336 46.6754 43.0436C47.0875 42.2536 46.995 42.1849 45.9269 42.0389V41.5838H49.5601V42.0389C49.1182 42.0243 48.6809 42.1334 48.2955 42.3543C47.91 42.5753 47.5912 42.8998 47.3735 43.2926C47.0371 43.7649 46.5324 44.5291 45.4391 46.2035C46.2801 47.6032 47.1884 49.0114 47.9622 50.1964C48.7359 51.3814 49.0555 51.5789 50.1572 51.6905V52.1456L45.9774 52.137Z" fill="white"/>
<path d="M60.1736 52.137V51.6819C61.4603 51.5531 61.5192 51.4672 61.5108 49.7499L61.4603 43.1209H61.3931L57.5244 52.0254H57.188L53.6558 43.3527L53.4203 47.981C53.3531 49.312 53.3531 50.0247 53.3699 50.6773C53.3699 51.4586 53.782 51.5359 54.8332 51.6819V52.137H51.1328V51.6819C52.0495 51.5703 52.3691 51.39 52.4784 50.7116C52.5878 50.0332 52.655 49.4322 52.7812 47.7406L52.983 44.3574C53.126 42.245 53.0503 42.1763 51.6038 42.0304V41.5838H54.2109L57.8272 49.7069L61.4772 41.5838H64.1768V42.0389C62.7807 42.1677 62.6714 42.2021 62.7134 43.8765L62.8732 49.7585C62.9237 51.4758 62.9657 51.5617 64.3534 51.6905V52.1456L60.1736 52.137Z" fill="white"/>
<path d="M72.63 52.137V51.6819C73.8495 51.5875 73.9925 51.5016 73.9925 50.1019V45.8687C73.9925 45.3363 73.9925 44.4089 74.0682 42.8461H74.0093L68.9632 51.347C68.8546 51.5332 68.8046 51.7491 68.8203 51.9653V52.1456H66.0449V51.6819C67.2476 51.5875 67.3821 51.4672 67.3821 49.9645V43.5159C67.3821 42.2364 67.256 42.1334 66.0449 42.0389V41.5838H70.0481V42.0389C68.8539 42.1334 68.7025 42.2364 68.7025 43.4987V47.4572C68.7025 48.2043 68.7025 49.0458 68.6352 50.6601L73.6224 42.2794C73.7328 42.1243 73.7944 41.9386 73.799 41.747V41.5838H76.6416V42.0389C75.439 42.1334 75.296 42.2708 75.296 43.7134V50.1105C75.296 51.5102 75.439 51.5875 76.6416 51.6905V52.1456L72.63 52.137Z" fill="white"/>
<path d="M89.4417 42.0389C88.1382 42.1506 88.012 42.2364 88.012 43.5846V50.1449C88.012 51.5102 88.1382 51.5875 89.4249 51.6905V52.1456H85.1694V51.6819C86.515 51.5875 86.658 51.5016 86.658 50.1363V46.8905H81.2504V50.1363C81.2504 51.4844 81.3765 51.5789 82.6801 51.6819V52.137H78.475V51.6819C79.745 51.5875 79.8711 51.5016 79.8711 50.1363V43.576C79.8711 42.2107 79.745 42.1506 78.4414 42.0304V41.5838H82.5539V42.0389C81.3513 42.1506 81.2167 42.2364 81.2167 43.5846V46.2121H86.6244V43.576C86.6244 42.2279 86.4982 42.1506 85.2619 42.0304V41.5838H89.4081L89.4417 42.0389Z" fill="white"/>
<path d="M119.104 52.137V51.6819C120.374 51.5875 120.5 51.5188 120.5 50.0934V43.2239C120.5 42.2794 120.424 42.1506 119.55 42.1506H116.547C115.656 42.1506 115.563 42.2794 115.563 43.3012V50.0934C115.563 51.493 115.706 51.5875 116.959 51.6819V52.137H112.83V51.6819C114.083 51.5875 114.209 51.5016 114.209 50.0934V43.6275C114.209 42.2021 114.083 42.1334 112.847 42.0389V41.5838H123.225V42.0389C121.989 42.1334 121.846 42.2193 121.846 43.6275V50.0934C121.846 51.5273 121.989 51.5875 123.242 51.6819V52.137H119.104Z" fill="white"/>
<path d="M131.197 52.1369V51.6818C132.198 51.553 132.341 51.4242 132.131 50.8232C131.921 50.2221 131.609 49.3119 131.29 48.3244H127.926C127.674 49.0543 127.43 49.7412 127.228 50.4196C126.883 51.4414 127.026 51.6046 128.212 51.7162V52.1713H124.764V51.6818C125.764 51.5359 125.983 51.4414 126.538 50.0074L129.826 41.4807L130.323 41.3348C131.307 44.1255 132.375 47.2167 133.384 50.0418C133.889 51.4414 134.099 51.5874 135.133 51.6818V52.1369H131.197ZM129.667 43.4471C129.162 44.8468 128.649 46.255 128.178 47.5859H131.096L129.667 43.4471Z" fill="white"/>
<path d="M140.901 41.5838C141.838 41.5129 142.773 41.7506 143.567 42.2622C143.909 42.5296 144.182 42.8782 144.363 43.2777C144.543 43.6773 144.625 44.1156 144.602 44.5548C144.603 45.4095 144.282 46.2319 143.706 46.852C143.13 47.4721 142.343 47.8425 141.507 47.8865C141.269 47.9029 141.03 47.9029 140.792 47.8865L139.606 47.5774V50.1534C139.606 51.5359 139.749 51.6132 141.179 51.7162V52.1713H136.873V51.6819C138.143 51.5874 138.269 51.4586 138.269 50.1019V43.6103C138.269 42.1849 138.143 42.1162 136.966 42.0303V41.5838H140.901ZM139.606 47.0364C139.979 47.1703 140.372 47.2372 140.767 47.2339C141.801 47.2339 143.071 46.6672 143.071 44.5978C143.104 44.2657 143.066 43.9303 142.958 43.6153C142.85 43.3003 142.675 43.0134 142.446 42.7749C142.218 42.5365 141.94 42.3523 141.634 42.2355C141.328 42.1187 141 42.0721 140.674 42.099C140.364 42.0674 140.052 42.1365 139.783 42.2965C139.657 42.4081 139.606 42.6056 139.606 43.0607V47.0364Z" fill="white"/>
<path d="M155.122 44.0998C155.048 43.5899 154.877 43.0998 154.618 42.6572C154.366 42.2708 154.096 42.1506 152.936 42.1506H151.809V50.1449C151.809 51.4243 151.935 51.5874 153.44 51.6905V52.1456H148.857V51.6819C150.303 51.5874 150.43 51.4243 150.43 50.1363V42.1506H149.446C148.125 42.1506 147.814 42.2794 147.604 42.6572C147.366 43.1097 147.196 43.5959 147.099 44.0998H146.637C146.712 43.1209 146.797 42.0647 146.83 41.1717H147.175C147.394 41.5409 147.604 41.5752 148.016 41.5752H154.29C154.453 41.5998 154.62 41.5746 154.77 41.5028C154.919 41.431 155.045 41.3159 155.131 41.1717H155.467C155.467 41.9187 155.543 43.1037 155.627 44.0482L155.122 44.0998Z" fill="white"/>
<path d="M168.108 42.0389C166.805 42.1506 166.679 42.2364 166.679 43.5846V50.1449C166.679 51.5102 166.805 51.5875 168.092 51.6905V52.1456H163.836V51.6819C165.182 51.5875 165.325 51.5016 165.325 50.1363V46.8905H159.909V50.1363C159.909 51.4844 160.035 51.5789 161.338 51.6819V52.137H157.133V51.6819C158.403 51.5875 158.529 51.5016 158.529 50.1363V43.576C158.529 42.2107 158.403 42.1506 157.1 42.0304V41.5838H161.212V42.0389C160.009 42.1506 159.883 42.2364 159.883 43.5846V46.2121H165.299V43.576C165.299 42.2279 165.173 42.1506 163.937 42.0304V41.5838H168.083L168.108 42.0389Z" fill="white"/>
<path d="M177.905 49.5696C177.813 50.102 177.493 51.6304 177.35 52.1456H169.697V51.6819C171.144 51.5703 171.27 51.4415 171.27 50.1191V43.6619C171.27 42.2021 171.144 42.1506 169.908 42.039V41.5839H176.989C176.989 41.9874 177.064 43.0951 177.115 43.9195L176.652 43.9967C176.567 43.5033 176.396 43.0294 176.148 42.5971C175.929 42.2536 175.5 42.142 174.356 42.142H173.154C172.658 42.142 172.632 42.142 172.632 42.6658V46.3581H174.087C175.517 46.3581 175.593 46.2293 175.769 45.1388H176.232V48.2558H175.769C175.559 47.088 175.45 46.9849 174.087 46.9849H172.582V50.059C172.582 50.8232 172.674 51.1667 172.96 51.3728C173.496 51.581 174.073 51.6547 174.642 51.5875C175.845 51.5875 176.324 51.4587 176.644 51.0379C176.991 50.5809 177.253 50.0629 177.418 49.5095L177.905 49.5696ZM173.103 40.0554C173.115 40.1632 173.103 40.2721 173.071 40.3752C173.038 40.4782 172.984 40.5731 172.913 40.6537C172.842 40.7342 172.756 40.7986 172.659 40.8427C172.562 40.8868 172.457 40.9096 172.351 40.9096C172.245 40.9096 172.14 40.8868 172.043 40.8427C171.946 40.7986 171.859 40.7342 171.788 40.6537C171.717 40.5731 171.663 40.4782 171.631 40.3752C171.598 40.2721 171.587 40.1632 171.598 40.0554C171.587 39.9477 171.598 39.8387 171.631 39.7357C171.663 39.6326 171.717 39.5377 171.788 39.4572C171.859 39.3766 171.946 39.3122 172.043 39.2681C172.14 39.224 172.245 39.2012 172.351 39.2012C172.457 39.2012 172.562 39.224 172.659 39.2681C172.756 39.3122 172.842 39.3766 172.913 39.4572C172.984 39.5377 173.038 39.6326 173.071 39.7357C173.103 39.8387 173.115 39.9477 173.103 40.0554ZM176.123 40.0554C176.125 40.1572 176.107 40.2584 176.07 40.3531C176.034 40.4479 175.979 40.5341 175.909 40.6069C175.84 40.6797 175.756 40.7376 175.664 40.777C175.573 40.8165 175.474 40.8368 175.374 40.8368C175.169 40.8368 174.972 40.7536 174.827 40.6054C174.682 40.4573 174.6 40.2563 174.6 40.0468C174.6 39.8373 174.682 39.6364 174.827 39.4882C174.972 39.3401 175.169 39.2568 175.374 39.2568C175.473 39.2579 175.571 39.2791 175.662 39.3191C175.753 39.3591 175.835 39.4171 175.904 39.4898C175.973 39.5624 176.027 39.6483 176.063 39.7425C176.099 39.8366 176.116 39.9372 176.114 40.0382L176.123 40.0554Z" fill="white"/>
<path d="M183.465 41.5838C184.402 41.5129 185.337 41.7506 186.131 42.2622C186.473 42.5296 186.746 42.8782 186.926 43.2777C187.107 43.6773 187.189 44.1156 187.166 44.5548C187.167 45.4095 186.846 46.2319 186.27 46.852C185.694 47.4721 184.907 47.8425 184.071 47.8865C183.833 47.9029 183.594 47.9029 183.356 47.8865L182.179 47.5774V50.1534C182.179 51.5359 182.322 51.6132 183.751 51.7162V52.1713H179.445V51.6819C180.715 51.5874 180.841 51.4586 180.841 50.1019V43.6103C180.841 42.1849 180.715 42.1162 179.538 42.0303V41.5838H183.465ZM182.179 47.045C182.551 47.1788 182.944 47.2456 183.339 47.2425C184.374 47.2425 185.643 46.6758 185.643 44.6064C185.677 44.2743 185.638 43.9389 185.53 43.6239C185.422 43.3089 185.247 43.022 185.018 42.7835C184.79 42.5451 184.512 42.3609 184.206 42.2441C183.9 42.1273 183.572 42.0807 183.247 42.1076C182.937 42.076 182.625 42.1451 182.355 42.3051C182.229 42.4167 182.179 42.6142 182.179 43.0693V47.045Z" fill="white"/>
<path d="M188.965 52.137V51.6819C190.176 51.5875 190.302 51.4844 190.302 50.0934V43.6103C190.302 42.2279 190.176 42.1334 188.998 42.0304V41.5838H193.044V42.0389C191.774 42.1334 191.631 42.2021 191.631 43.6189V45.9288C192.158 45.8568 192.689 45.8252 193.22 45.8343C195.743 45.8343 196.87 47.0193 196.87 48.7624C196.91 49.3088 196.795 49.8553 196.538 50.3365C196.282 50.8177 195.895 51.2133 195.424 51.4758C194.467 51.9891 193.392 52.2293 192.312 52.1714L188.965 52.137ZM191.631 50.1535C191.631 51.1925 191.791 51.5531 192.993 51.5531C194.196 51.5531 195.314 50.8404 195.314 48.917C195.314 46.9935 194.28 46.3409 192.682 46.3409C192.331 46.3445 191.98 46.3675 191.631 46.4096V50.1535ZM196.963 52.137V51.6819C198.165 51.6046 198.3 51.4243 198.3 50.1191V43.576C198.3 42.3051 198.174 42.1334 196.963 42.0304V41.5838H201V42.0389C199.78 42.1334 199.654 42.2966 199.654 43.5846V50.1277C199.654 51.4415 199.78 51.6046 200.991 51.6905V52.1456L196.963 52.137Z" fill="white"/>
<path d="M3.46494 63.3599V63.1023C4.00318 63.0336 4.07887 62.9649 3.96954 62.6215C3.86021 62.278 3.69201 61.8143 3.49858 61.2819H1.68201C1.54745 61.6769 1.4213 62.0376 1.31197 62.4068C1.12695 62.9564 1.20264 63.0422 1.8418 63.1023V63.3428H0V63.1023C0.538243 63.025 0.655983 62.9735 0.950335 62.2437L2.70803 57.6755L2.96874 57.5982C3.49858 59.0923 4.06205 60.7495 4.65075 62.2608C4.91988 63.0079 5.02921 63.1195 5.58427 63.1195V63.3599H3.46494ZM2.62393 58.7059L1.82498 60.9213H3.36402L2.62393 58.7059Z" fill="#B9B9B9"/>
<path d="M10.8662 58.972C10.8192 58.7078 10.7251 58.4546 10.5887 58.225C10.4709 58.0532 10.2018 58.0017 9.67197 58.0017H9.12532C8.80574 58.0017 8.78051 58.0017 8.78051 58.3194V62.2436C8.78051 62.9907 8.84779 63.0422 9.62151 63.1023V63.3341H7.33398V63.1023C7.98156 63.0508 8.04884 62.9992 8.04884 62.2436V58.8089C8.04884 58.0532 7.98156 58.0189 7.36762 57.9502V57.7098H11.026C11.026 57.8643 11.0765 58.5685 11.1185 58.9463L10.8662 58.972Z" fill="#B9B9B9"/>
<path d="M17.0899 61.986C17.0394 62.2694 16.8712 63.0937 16.7955 63.3599H12.6914V63.1023C13.4651 63.0422 13.5324 62.9735 13.5324 62.2436V58.8089C13.5324 58.0275 13.4651 58.0017 12.8007 57.9502V57.7098H16.5937C16.5937 57.9244 16.6357 58.5169 16.6609 58.9634L16.4171 59.0064C16.3717 58.743 16.2806 58.49 16.1479 58.2593C16.0302 58.079 15.8031 58.0189 15.1892 58.0189H14.5416C14.2809 58.0189 14.2641 58.0189 14.2641 58.2937V60.2686H15.063C15.8283 60.2686 15.904 60.1999 15.9797 59.616H16.2236V61.2819H15.9797C15.8704 60.655 15.8115 60.6035 15.0714 60.6035H14.2977V62.2436C14.2977 62.6558 14.3482 62.8361 14.4996 62.9477C14.7812 63.0554 15.0838 63.0937 15.3826 63.0593C16.0302 63.0593 16.2657 62.9907 16.4507 62.7674C16.6423 62.5106 16.785 62.2193 16.8712 61.9087L17.0899 61.986Z" fill="#B9B9B9"/>
<path d="M24.5831 57.9502C23.8851 58.0103 23.8178 58.0532 23.8178 58.8089V62.3209C23.8178 63.0508 23.8851 63.0937 24.5747 63.1796V63.42H22.2956V63.1023C23.0188 63.0508 23.1366 63.0078 23.1366 62.2436V60.5262H20.1846V62.2436C20.1846 62.9649 20.2519 63.0164 20.95 63.1023V63.3427H18.7297V63.1023C19.4109 63.0508 19.4782 63.0078 19.4782 62.2436V58.8089C19.4782 58.079 19.4109 58.0447 18.7129 57.9502V57.7098H20.9163V57.9502C20.2687 58.0103 20.2015 58.0532 20.2015 58.8089V60.1828H23.1029V58.8089C23.1029 58.0876 23.0356 58.0447 22.3713 57.9502V57.7098H24.5915L24.5831 57.9502Z" fill="#B9B9B9"/>
<path d="M30.7973 59.0493C30.7583 58.7761 30.6668 58.5135 30.5281 58.2765C30.3936 58.0704 30.2506 58.0103 29.6115 58.0103H29.0059V62.3037C29.0059 62.9907 29.0732 63.0765 29.8469 63.1624V63.4028H27.408V63.1023C28.1818 63.0508 28.249 62.9649 28.249 62.2436V57.9502H27.7528C27.0464 57.9502 26.9118 58.0189 26.7689 58.2164C26.6419 58.4589 26.5512 58.7194 26.4998 58.9892H26.2559C26.2979 58.4654 26.34 57.8987 26.3568 57.4264H26.525C26.6427 57.6239 26.752 57.6411 26.9959 57.6411H30.3599C30.4453 57.6512 30.5316 57.6364 30.609 57.5984C30.6865 57.5604 30.7517 57.5008 30.7973 57.4264H30.9739C30.9739 57.83 31.0159 58.4654 31.058 58.9635L30.7973 59.0493Z" fill="#B9B9B9"/>
<path d="M37.794 61.9259C37.6648 62.3816 37.5017 62.8265 37.3062 63.2569C36.7948 63.393 36.2702 63.4708 35.7419 63.4887C35.3525 63.5248 34.96 63.477 34.5898 63.3483C34.2196 63.2197 33.88 63.0131 33.593 62.7419C33.306 62.4707 33.0779 62.141 32.9237 61.7741C32.7694 61.4072 32.6924 61.0114 32.6975 60.6121C32.6975 58.7831 34.0768 57.5724 35.969 57.5724C36.4778 57.5913 36.9828 57.6691 37.4744 57.8042C37.5417 58.3023 37.5921 58.6629 37.6426 59.118L37.3903 59.1781C37.3645 58.9797 37.3004 58.7884 37.2016 58.6155C37.1028 58.4425 36.9714 58.2913 36.8149 58.1707C36.6584 58.0501 36.48 57.9624 36.29 57.9127C36.1 57.8631 35.9023 57.8525 35.7083 57.8815C35.3951 57.8913 35.0872 57.9673 34.8043 58.1049C34.5214 58.2425 34.2696 58.4386 34.0648 58.6808C33.86 58.923 33.7067 59.206 33.6147 59.5119C33.5226 59.8177 33.4938 60.1397 33.5301 60.4576C33.5301 62.0805 34.4636 63.1967 35.7588 63.1967C36.5998 63.1967 37.0875 62.7159 37.508 61.8486L37.794 61.9259Z" fill="#B9B9B9"/>
<path d="M44.1356 59.0493C44.0964 58.7762 44.005 58.5136 43.8665 58.2765C43.7319 58.0704 43.5889 58.0103 42.9498 58.0103H42.3443V62.3037C42.3443 62.9907 42.4115 63.0765 43.1853 63.1624V63.4028H40.7464V63.1023C41.5201 63.0508 41.5874 62.9649 41.5874 62.2436V57.9502H41.0575C40.3511 57.9502 40.2165 58.0189 40.0736 58.2164C39.9466 58.4589 39.8559 58.7194 39.8044 58.9892H39.5605C39.6026 58.4654 39.6446 57.8987 39.6615 57.4264H39.8297C39.9474 57.6239 40.0567 57.6411 40.3006 57.6411H43.6646C43.7499 57.6512 43.8363 57.6364 43.9137 57.5984C43.9911 57.5604 44.0564 57.5008 44.102 57.4264H44.2786C44.2786 57.83 44.3206 58.4654 44.3627 58.9635L44.1356 59.0493Z" fill="#B9B9B9"/>
<path d="M48.879 60.3116C49.72 60.4404 50.3844 60.8268 50.3844 61.6941C50.3793 61.9716 50.2977 62.2421 50.1489 62.4745C50.0002 62.7068 49.7903 62.8917 49.5434 63.0078C49.0206 63.2678 48.4421 63.3889 47.8613 63.3599H46.0195V63.1023C46.7512 63.0508 46.8017 62.9993 46.8017 62.2436V58.8089C46.8017 58.0876 46.8017 58.0361 46.0868 57.9502V57.7098H48.2734C48.719 57.6674 49.1663 57.7696 49.5518 58.0017C49.704 58.1144 49.8272 58.2631 49.9107 58.4351C49.9942 58.6071 50.0356 58.7973 50.0311 58.9892C50.0155 59.3066 49.8933 59.6089 49.6849 59.8451C49.4766 60.0812 49.1949 60.2369 48.8874 60.2858L48.879 60.3116ZM47.937 60.2085C48.8705 60.2085 49.2658 59.8221 49.2658 59.0923C49.2827 58.9351 49.2642 58.776 49.2117 58.6273C49.1592 58.4785 49.0742 58.3439 48.9631 58.2338C48.8519 58.1236 48.7177 58.0408 48.5705 57.9917C48.4233 57.9426 48.267 57.9284 48.1136 57.9502C47.9468 57.9404 47.7799 57.9698 47.6259 58.0361C47.5502 58.0876 47.5165 58.1821 47.5165 58.474V60.1914L47.937 60.2085ZM47.5165 62.2436C47.5165 62.8705 47.6763 63.0336 48.223 63.0336C48.3951 63.0526 48.5693 63.033 48.7333 62.9764C48.8974 62.9198 49.0474 62.8274 49.173 62.7057C49.2986 62.584 49.3968 62.4359 49.4608 62.2716C49.5247 62.1073 49.5529 61.9307 49.5434 61.7542C49.5434 60.8955 48.9462 60.4661 47.9118 60.4661H47.5165V62.2436Z" fill="#B9B9B9"/>
<path d="M57.9203 60.4576C57.9448 60.8512 57.889 61.2458 57.7565 61.6163C57.624 61.9868 57.4176 62.3252 57.1505 62.6101C56.8833 62.895 56.5611 63.1202 56.2043 63.2714C55.8476 63.4226 55.4639 63.4966 55.0777 63.4887C54.7086 63.4901 54.3431 63.4155 54.0029 63.2696C53.6627 63.1237 53.3547 62.9093 53.0973 62.6393C52.8399 62.3693 52.6383 62.0491 52.5047 61.6979C52.371 61.3467 52.3079 60.9716 52.3192 60.595C52.3021 60.2021 52.3635 59.8097 52.4998 59.4419C52.6361 59.0741 52.8445 58.7385 53.1121 58.4556C53.3797 58.1727 53.7009 57.9485 54.0562 57.7967C54.4115 57.6448 54.7934 57.5685 55.1786 57.5724C55.5458 57.5722 55.9094 57.6474 56.2476 57.7934C56.5858 57.9394 56.8919 58.1533 57.1476 58.4224C57.4033 58.6915 57.6035 59.0103 57.7362 59.3599C57.8689 59.7095 57.9315 60.0828 57.9203 60.4576ZM53.1854 60.3459C53.1854 61.9774 54.0264 63.171 55.2627 63.171C56.2046 63.171 57.054 62.3639 57.054 60.6894C57.054 58.8518 56.1205 57.8815 55.002 57.8815C54.0517 57.8901 53.1854 58.723 53.1854 60.3459Z" fill="#B9B9B9"/>
<path d="M62.8067 59.2726C62.8655 58.8261 62.916 58.4139 62.9833 58.0018C63.5551 57.765 64.1593 57.6202 64.7746 57.5724C65.1358 57.555 65.4966 57.6153 65.8335 57.7493C66.1705 57.8833 66.4761 58.088 66.7306 58.3503C66.9851 58.6126 67.1828 58.9265 67.3109 59.2718C67.439 59.6171 67.4947 59.9859 67.4742 60.3546C67.4742 62.9907 65.6156 63.4888 64.6569 63.4888C64.0418 63.5139 63.4403 63.299 62.9749 62.8877C62.7672 62.7142 62.6343 62.4645 62.6048 62.1921C62.5976 62.1128 62.6207 62.0336 62.6693 61.9712C62.7178 61.9088 62.7882 61.868 62.8655 61.8573C62.9917 61.8573 63.1094 61.9775 63.1935 62.1664C63.3123 62.485 63.5288 62.7558 63.8107 62.9384C64.0927 63.121 64.4249 63.2056 64.7578 63.1796C65.809 63.1796 66.6669 62.2179 66.6753 60.6036L63.7149 60.6723V60.1828L66.6669 60.2601C66.5996 58.5428 65.7502 57.8987 64.741 57.8987C63.7318 57.8987 63.3197 58.6458 63.059 59.3242L62.8067 59.2726Z" fill="#B9B9B9"/>
<path d="M71.72 63.3599V63.1023C72.3591 63.0507 72.4264 63.0078 72.4264 62.2436V58.4225C72.4264 58.0447 72.4264 58.0103 72.1068 58.0103H71.2154C70.8706 58.0103 70.8537 58.0103 70.8537 58.2593C70.8537 60.6121 70.5089 62.235 69.9034 63.0422C69.6848 63.3427 69.4661 63.4801 69.2895 63.4801C69.1363 63.4785 68.9849 63.4464 68.8438 63.3856V63.2311C69.2245 62.9949 69.531 62.6522 69.7268 62.2436C70.27 61.0707 70.5185 59.7781 70.4501 58.4826C70.4501 58.0275 70.3071 57.9502 69.6091 57.9073V57.6668H73.8141V57.9502C73.1665 58.0017 73.0992 58.0704 73.0992 58.7144V62.2436C73.0992 62.9992 73.1665 63.0422 73.8141 63.1023V63.3427L71.72 63.3599Z" fill="#B9B9B9"/>
<path d="M79.2216 63.3599V63.1023C79.8776 63.0508 79.9533 63.0078 79.9533 62.2436V60.0025C79.9533 59.7191 79.9533 59.2211 79.9954 58.3881L77.3042 62.9391C77.2473 63.0376 77.2209 63.1514 77.2285 63.2654V63.3599H75.6895V63.1023C76.337 63.0508 76.4043 62.9907 76.4043 62.2007V58.766C76.4043 58.079 76.337 58.0275 75.6895 57.976V57.7355H77.834V57.9502C77.1948 58.0017 77.1107 58.0532 77.1107 58.7316V60.8525C77.1107 61.2561 77.1107 61.7112 77.1107 62.5699L79.7767 58.079C79.8352 57.9964 79.8675 57.8975 79.8692 57.7956V57.7098H81.3914V57.9502C80.7439 58.0017 80.6682 58.0704 80.6682 58.8089V62.2436C80.6682 62.9907 80.7439 63.0336 81.3914 63.1023V63.3427L79.2216 63.3599Z" fill="#B9B9B9"/>
<path d="M87.6317 59.0493C87.5928 58.7761 87.5013 58.5135 87.3626 58.2765C87.228 58.0704 87.0851 58.0103 86.4459 58.0103H85.8404V62.3037C85.8404 62.9907 85.9077 63.0765 86.6814 63.1624V63.4028H84.2425V63.1023C85.0162 63.0508 85.0835 62.9649 85.0835 62.2436V57.9502H84.5536C83.8472 57.9502 83.7126 58.0189 83.5697 58.2164C83.4427 58.4589 83.352 58.7194 83.3005 58.9892H83.0566C83.0987 58.4654 83.1407 57.8987 83.1576 57.4264H83.3258C83.4435 57.6239 83.5528 57.6411 83.7967 57.6411H87.1608C87.2461 57.6512 87.3324 57.6364 87.4099 57.5984C87.4873 57.5604 87.5525 57.5008 87.5981 57.4264H87.7747C87.7747 57.83 87.8167 58.4654 87.8588 58.9635L87.6317 59.0493Z" fill="#B9B9B9"/>
<path d="M95.404 57.9502C94.7059 58.0103 94.6386 58.0532 94.6386 58.8089V62.3209C94.6386 63.0508 94.7059 63.0937 95.3955 63.1796V63.42H93.1164V63.1023C93.8397 63.0508 93.9154 63.0078 93.9154 62.2436V60.5262H91.014V62.2436C91.014 62.9649 91.0812 63.0164 91.7793 63.1023V63.3427H89.5422V63.1023C90.2234 63.0508 90.2907 63.0078 90.2907 62.2436V58.8089C90.2907 58.079 90.2234 58.0447 89.5254 57.9502V57.7098H91.7288V57.9502C91.0812 58.0103 91.014 58.0532 91.014 58.8089V60.1828H93.9154V58.8089C93.9154 58.0876 93.8481 58.0447 93.1837 57.9502V57.7098H95.404V57.9502Z" fill="#B9B9B9"/>
<path d="M102.754 60.4576C102.779 60.8512 102.723 61.2458 102.59 61.6163C102.458 61.9868 102.252 62.3252 101.984 62.6101C101.717 62.895 101.395 63.1202 101.038 63.2714C100.682 63.4226 100.298 63.4966 99.9117 63.4887C99.5426 63.4901 99.1771 63.4155 98.8369 63.2696C98.4966 63.1237 98.1886 62.9093 97.9313 62.6393C97.6739 62.3693 97.4723 62.0491 97.3387 61.6979C97.205 61.3467 97.1419 60.9716 97.1532 60.595C97.136 60.2021 97.1975 59.8097 97.3338 59.4419C97.4701 59.0741 97.6785 58.7385 97.9461 58.4556C98.2137 58.1727 98.5349 57.9485 98.8902 57.7967C99.2455 57.6448 99.6274 57.5685 100.013 57.5724C100.38 57.5722 100.743 57.6474 101.082 57.7934C101.42 57.9394 101.726 58.1533 101.982 58.4224C102.237 58.6915 102.437 59.0103 102.57 59.3599C102.703 59.7095 102.765 60.0828 102.754 60.4576ZM98.0194 60.3459C98.0194 61.9774 98.8604 63.171 100.097 63.171C101.039 63.171 101.888 62.3639 101.888 60.6894C101.888 58.8518 100.954 57.8815 99.836 57.8815C98.8857 57.8901 98.0194 58.723 98.0194 60.3459Z" fill="#B9B9B9"/>
<path d="M108.129 63.36V63.1024C108.785 63.0508 108.861 63.0079 108.861 62.2437V60.0025C108.861 59.7192 108.861 59.2211 108.903 58.3882L106.211 62.9392C106.154 63.0377 106.128 63.1514 106.136 63.2655V63.36H104.639V63.1024C105.286 63.0508 105.354 62.9907 105.354 62.2007V58.766C105.354 58.0791 105.286 58.0276 104.639 57.976V57.7356H106.783V57.9503C106.144 58.0018 106.06 58.0533 106.06 58.7317V60.8526C106.06 61.2562 106.06 61.7113 106.06 62.57L108.726 58.0791C108.784 57.9965 108.817 57.8976 108.818 57.7957V57.7099H110.341V57.9503C109.693 58.0018 109.617 58.0705 109.617 58.809V62.2437C109.617 62.9907 109.693 63.0337 110.341 63.1024V63.3428L108.129 63.36ZM106.447 56.585C106.444 56.5365 106.452 56.4881 106.469 56.4429C106.487 56.3978 106.514 56.3571 106.548 56.3236C106.582 56.2901 106.623 56.2647 106.668 56.249C106.713 56.2334 106.761 56.2279 106.808 56.2329C106.851 56.2347 106.894 56.2459 106.932 56.2656C106.97 56.2853 107.004 56.3132 107.031 56.3473C107.058 56.3814 107.078 56.421 107.089 56.4635C107.1 56.5059 107.102 56.5503 107.094 56.5936C107.094 56.8254 107.263 56.9542 107.549 56.9542C107.834 56.9542 108.003 56.8168 107.994 56.5936C107.987 56.5489 107.989 56.5031 108.001 56.4594C108.013 56.4157 108.034 56.3753 108.063 56.3408C108.092 56.3064 108.128 56.2789 108.168 56.2603C108.209 56.2416 108.253 56.2323 108.297 56.2329C108.34 56.2351 108.382 56.246 108.42 56.265C108.459 56.284 108.493 56.3107 108.521 56.3435C108.55 56.3764 108.571 56.4147 108.585 56.4561C108.598 56.4976 108.603 56.5414 108.6 56.585C108.6 57.0057 108.179 57.2891 107.549 57.2891C106.918 57.2891 106.472 56.9971 106.472 56.585H106.447Z" fill="#B9B9B9"/>
<path d="M120.912 57.9502C120.214 58.0103 120.147 58.0532 120.147 58.8089V62.3209C120.147 63.0508 120.214 63.0937 120.903 63.1796V63.42H118.582V63.1023C119.306 63.0508 119.423 63.0078 119.423 62.2436V60.5262H116.522V62.2436C116.522 62.9649 116.589 63.0164 117.287 63.1023V63.3427H115.05V63.1023C115.731 63.0508 115.799 63.0078 115.799 62.2436V58.8089C115.799 58.079 115.731 58.0447 115.033 57.9502V57.7098H117.237V57.9502C116.589 58.0103 116.522 58.0532 116.522 58.8089V60.1828H119.423V58.8089C119.423 58.0876 119.356 58.0447 118.692 57.9502V57.7098H120.912V57.9502Z" fill="#B9B9B9"/>
<path d="M126.992 61.986C126.941 62.2694 126.773 63.0937 126.697 63.3599H122.602V63.1023C123.375 63.0422 123.443 62.9735 123.443 62.2436V58.8089C123.443 58.0275 123.375 58.0017 122.711 57.9502V57.7098H126.504C126.504 57.9244 126.546 58.5169 126.571 58.9634L126.327 59.0064C126.282 58.743 126.191 58.49 126.058 58.2593C125.94 58.079 125.713 58.0189 125.099 58.0189H124.469C124.208 58.0189 124.191 58.0189 124.191 58.2937V60.2686H125.032C125.797 60.2686 125.873 60.1999 125.949 59.616H126.151V61.2819H125.907C125.797 60.655 125.738 60.6035 124.998 60.6035H124.157V62.2436C124.157 62.6558 124.208 62.8361 124.359 62.9477C124.641 63.0554 124.943 63.0937 125.242 63.0593C125.89 63.0593 126.125 62.9907 126.31 62.7674C126.499 62.5099 126.639 62.2187 126.722 61.9087L126.992 61.986Z" fill="#B9B9B9"/>
<path d="M133.291 64.8196H133.039L132.938 64.0468C132.871 63.4629 132.744 63.3599 132.324 63.3599H129.649C129.162 63.3599 129.069 63.5059 128.926 64.0812L128.733 64.8196H128.48L128.523 63.0422H128.876C128.933 63.0511 128.992 63.0386 129.041 63.0071C129.091 62.9756 129.127 62.9272 129.145 62.8704C129.701 61.4887 129.959 60.001 129.902 58.5084C129.902 58.0962 129.784 58.0533 129.414 57.9932L129.078 57.9416V57.7012H133.417V57.9502C132.761 58.0017 132.694 58.0533 132.694 58.8089V62.5613C132.694 62.9735 132.736 63.0164 132.988 63.0164H133.484L133.291 64.8196ZM131.971 58.6114C131.971 58.0447 131.971 58.0103 131.643 58.0103H130.659C130.331 58.0103 130.305 58.0103 130.305 58.2851C130.34 59.8089 130.132 61.3284 129.692 62.7846C129.633 62.9563 129.641 63.0422 129.851 63.0422H131.449C131.887 63.0422 131.979 62.9563 131.979 62.3982L131.971 58.6114Z" fill="#B9B9B9"/>
<path d="M138.077 60.3116C138.918 60.4404 139.582 60.8268 139.582 61.6941C139.577 61.9717 139.495 62.2421 139.347 62.4745C139.198 62.7069 138.988 62.8917 138.741 63.0079C138.218 63.2678 137.64 63.3889 137.059 63.3599H135.184V63.1023C135.915 63.0508 135.966 62.9993 135.966 62.2437V58.8089C135.966 58.0877 135.966 58.0361 135.251 57.9503V57.7098H137.437C137.883 57.6669 138.331 57.7691 138.716 58.0018C138.868 58.1144 138.991 58.2631 139.075 58.4352C139.158 58.6072 139.2 58.7973 139.195 58.9893C139.18 59.3067 139.057 59.6089 138.849 59.8451C138.641 60.0813 138.359 60.2369 138.051 60.2859L138.077 60.3116ZM137.084 60.2086C138.018 60.2086 138.413 59.8222 138.413 59.0923C138.425 58.9396 138.404 58.786 138.351 58.6427C138.298 58.4993 138.215 58.3696 138.107 58.2629C138 58.1562 137.87 58.0752 137.728 58.0256C137.586 57.976 137.435 57.9591 137.286 57.976C137.119 57.9662 136.952 57.9956 136.798 58.0619C136.723 58.1134 136.689 58.2079 136.689 58.4998V60.2172L137.084 60.2086ZM136.689 62.2694C136.689 62.8963 136.849 63.0594 137.395 63.0594C137.571 63.0866 137.751 63.0733 137.922 63.0204C138.092 62.9676 138.249 62.8765 138.38 62.7538C138.511 62.6311 138.614 62.48 138.681 62.3115C138.748 62.1431 138.777 61.9614 138.766 61.78C138.766 60.9213 138.169 60.492 137.135 60.492H136.748L136.689 62.2694Z" fill="#B9B9B9"/>
<path d="M144.905 63.3599V63.1023C145.561 63.0508 145.637 63.0078 145.637 62.2436V60.0025C145.637 59.7191 145.637 59.2211 145.679 58.3881L142.971 62.9305C142.914 63.029 142.888 63.1428 142.895 63.2568V63.3513H141.398V63.1023C142.046 63.0508 142.113 62.9907 142.113 62.2007V58.766C142.113 58.079 142.046 58.0275 141.398 57.976V57.7355H143.543V57.9502C142.904 58.0017 142.82 58.0532 142.82 58.7316V60.8525C142.82 61.2561 142.82 61.7112 142.82 62.5699L145.494 58.079C145.552 57.9962 145.584 57.8974 145.587 57.7956V57.7098H147.109V57.9502C146.461 58.0017 146.386 58.0704 146.386 58.8089V62.2436C146.386 62.9907 146.461 63.0336 147.109 63.1023V63.3427L144.905 63.3599Z" fill="#B9B9B9"/>
<path d="M155.779 63.36C155.241 63.36 155.005 63.0594 154.761 62.5614L154.156 61.3163C153.811 60.5778 153.475 60.4576 152.936 60.4576V62.2437C152.936 62.9736 153.012 63.0422 153.66 63.1024V63.3428H151.498V63.1024C152.154 63.0508 152.222 62.9907 152.222 62.2437V60.5263C151.952 60.4902 151.679 60.5511 151.449 60.6984C151.218 60.8457 151.046 61.0702 150.96 61.3335C150.733 61.8143 150.497 62.3381 150.38 62.5871C150.144 63.0852 149.892 63.3857 149.371 63.3857H148.664V63.1024C149.076 63.1024 149.32 62.9564 149.614 62.3897C149.909 61.8229 150.127 61.4022 150.287 61.136C150.381 60.9336 150.515 60.753 150.68 60.6053C150.844 60.4576 151.037 60.346 151.246 60.2773C150.853 60.0209 150.557 59.6366 150.405 59.1868C150.035 58.4054 149.884 58.1478 149.505 58.1478H149.337C149.261 58.1552 149.186 58.1325 149.126 58.0845C149.067 58.0365 149.028 57.9669 149.017 57.8902C149.017 57.7099 149.169 57.5381 149.463 57.5381C149.757 57.5381 150.178 57.7785 150.464 58.4483C150.634 58.9532 150.893 59.4219 151.229 59.8308C151.362 59.9656 151.524 60.0675 151.702 60.1285C151.88 60.1895 152.069 60.2081 152.255 60.1828V58.7317C152.255 58.0447 152.188 58.0018 151.532 57.9503V57.7099H153.693V57.9503C153.046 58.0018 152.97 58.0447 152.97 58.7317V60.2172C153.159 60.2413 153.35 60.2223 153.53 60.1614C153.711 60.1005 153.876 59.9993 154.013 59.8651C154.344 59.46 154.595 58.9935 154.753 58.4912C155.047 57.8129 155.392 57.5725 155.771 57.5725C156.149 57.5725 156.208 57.7442 156.208 57.9245C156.208 58.1048 156.057 58.1821 155.871 58.1821H155.695C155.316 58.1821 155.148 58.4998 154.854 59.204C154.696 59.6552 154.402 60.0433 154.013 60.3116C154.224 60.3755 154.419 60.4853 154.585 60.6335C154.75 60.7818 154.882 60.9649 154.972 61.1703C155.123 61.4365 155.35 61.9002 155.636 62.424C155.922 62.9478 156.183 63.1024 156.586 63.1367V63.3771L155.779 63.36Z" fill="#B9B9B9"/>
<path d="M161.642 63.3599V63.1023C162.298 63.0508 162.373 63.0078 162.373 62.2436V60.0025C162.373 59.7191 162.373 59.2211 162.415 58.3881L159.724 62.9391C159.667 63.0376 159.641 63.1514 159.648 63.2654V63.3599H158.109V63.1023C158.757 63.0508 158.824 62.9907 158.824 62.2007V58.766C158.824 58.079 158.757 58.0275 158.109 57.976V57.7355H160.254V57.9502C159.615 58.0017 159.531 58.0532 159.531 58.7316V60.8525C159.531 61.2561 159.531 61.7112 159.531 62.5699L162.197 58.079C162.255 57.9962 162.287 57.8974 162.289 57.7956V57.7098H163.811V57.9502C163.164 58.0017 163.088 58.0704 163.088 58.8089V62.2436C163.088 62.9907 163.164 63.0336 163.811 63.1023V63.3427L161.642 63.3599Z" fill="#B9B9B9"/>
<path d="M170.346 63.3599V63.1023C171.035 63.0336 171.069 62.9907 171.06 62.0633V58.517L168.983 63.2827H168.815L166.914 58.6372L166.788 61.1188C166.788 61.8315 166.788 62.2179 166.788 62.5614C166.788 62.9048 167.007 63.0422 167.57 63.1023V63.3428H165.594V63.1023C166.09 63.0422 166.258 62.9478 166.317 62.5785C166.376 62.2093 166.41 61.8916 166.477 60.99L166.595 59.1782C166.67 58.0447 166.595 58.0104 165.854 57.9331V57.6926H167.251L169.185 62.0462L171.144 57.6926H172.591V57.9502C171.843 58.0189 171.75 58.0361 171.809 58.9291L171.893 62.0805C171.893 62.9993 171.943 63.0422 172.684 63.1195V63.3599H170.346Z" fill="#B9B9B9"/>
<path d="M179.924 60.4576C179.949 60.8505 179.893 61.2443 179.761 61.6142C179.629 61.9841 179.424 62.3221 179.157 62.6069C178.891 62.8916 178.57 63.117 178.214 63.2688C177.858 63.4205 177.476 63.4954 177.09 63.4887C176.72 63.4912 176.354 63.4175 176.013 63.2721C175.671 63.1267 175.362 62.9125 175.104 62.6424C174.846 62.3722 174.644 62.0517 174.509 61.6999C174.375 61.3481 174.312 60.9723 174.323 60.595C174.306 60.2021 174.367 59.8097 174.504 59.4419C174.64 59.0741 174.848 58.7385 175.116 58.4556C175.384 58.1727 175.705 57.9485 176.06 57.7967C176.415 57.6448 176.797 57.5685 177.183 57.5724C177.55 57.5722 177.913 57.6474 178.252 57.7934C178.59 57.9394 178.896 58.1533 179.152 58.4224C179.407 58.6915 179.607 59.0103 179.74 59.3599C179.873 59.7095 179.935 60.0828 179.924 60.4576ZM175.189 60.3459C175.189 61.9774 176.03 63.171 177.267 63.171C178.209 63.171 179.058 62.3638 179.058 60.6894C179.058 58.8518 178.124 57.8815 177.006 57.8815C176.056 57.8901 175.189 58.723 175.189 60.3459Z" fill="#B9B9B9"/>
<path d="M187.04 61.9259C186.911 62.3815 186.748 62.8265 186.552 63.2569C186.041 63.3931 185.516 63.4708 184.988 63.4887C184.599 63.5248 184.206 63.477 183.836 63.3483C183.466 63.2197 183.126 63.0131 182.839 62.7419C182.552 62.4707 182.324 62.141 182.17 61.7741C182.016 61.4072 181.938 61.0114 181.944 60.6121C181.944 58.7831 183.323 57.5724 185.215 57.5724C185.724 57.5913 186.229 57.6691 186.721 57.8042C186.788 58.3023 186.838 58.6629 186.889 59.118L186.636 59.1781C186.611 58.9797 186.547 58.7884 186.448 58.6155C186.349 58.4425 186.217 58.2913 186.061 58.1707C185.905 58.0501 185.726 57.9624 185.536 57.9127C185.346 57.8631 185.148 57.8525 184.954 57.8815C184.641 57.8913 184.333 57.9673 184.05 58.1049C183.768 58.2425 183.516 58.4386 183.311 58.6808C183.106 58.923 182.953 59.206 182.861 59.5119C182.769 59.8177 182.74 60.1397 182.776 60.4576C182.776 62.0805 183.71 63.1967 185.005 63.1967C185.846 63.1967 186.334 62.7159 186.754 61.8486L187.04 61.9259Z" fill="#B9B9B9"/>
<path d="M193.38 59.0493C193.341 58.7762 193.249 58.5137 193.111 58.2765C192.976 58.0704 192.834 58.0103 192.194 58.0103H191.589V62.3037C191.589 62.9907 191.656 63.0765 192.43 63.1624V63.4028H190.067V63.1023C190.84 63.0508 190.908 62.9649 190.908 62.2436V57.9502H190.378C189.671 57.9502 189.537 58.0189 189.394 58.2164C189.267 58.4588 189.176 58.7193 189.125 58.9892H188.881C188.923 58.4654 188.965 57.8987 188.982 57.4264H189.15C189.268 57.6239 189.377 57.6411 189.621 57.6411H192.985C193.07 57.6512 193.157 57.6364 193.234 57.5984C193.311 57.5604 193.377 57.5008 193.422 57.4264H193.599C193.599 57.83 193.641 58.4654 193.683 58.9635L193.38 59.0493Z" fill="#B9B9B9"/>
<path d="M198.838 63.3599V63.1023C199.494 63.0508 199.569 63.0078 199.569 62.2436V60.0025C199.569 59.7191 199.569 59.2211 199.612 58.3881L196.92 62.9391C196.863 63.0376 196.837 63.1514 196.845 63.2654V63.3599H195.348V63.1023C195.995 63.0508 196.063 62.9907 196.063 62.2007V58.766C196.063 58.079 195.995 58.0275 195.348 57.976V57.7355H197.492V57.9502C196.853 58.0017 196.769 58.0532 196.769 58.7316V60.8525C196.769 61.2561 196.769 61.7112 196.769 62.5699L199.435 58.079C199.493 57.9962 199.525 57.8974 199.527 57.7956V57.7098H200.999V57.9502C200.352 58.0017 200.276 58.0704 200.276 58.8089V62.2436C200.276 62.9907 200.352 63.0336 200.999 63.1023V63.3427L198.838 63.3599Z" fill="#B9B9B9"/>
<path d="M103.704 52.137L102.972 51.2783C102.038 51.9565 100.93 52.3415 99.7846 52.386C99.2796 52.3989 98.7772 52.3091 98.3065 52.1219C97.8358 51.9347 97.4063 51.6538 97.0429 51.2955C96.6822 50.9546 96.3961 50.5397 96.2034 50.078C96.0106 49.6163 95.9155 49.1182 95.9244 48.6164C95.9244 46.8991 96.8916 45.7112 98.8259 45.0529C98.3107 44.3447 98.0017 43.5024 97.9344 42.6229C97.9261 42.2785 97.9901 41.9364 98.1222 41.6194C98.2542 41.3025 98.4511 41.0181 98.6997 40.7853C99.2234 40.294 99.9148 40.0319 100.626 40.0554C101.349 40.0373 102.054 40.2943 102.602 40.7767C102.845 40.9867 103.038 41.2505 103.166 41.5481C103.295 41.8457 103.355 42.1692 103.342 42.4941C103.342 43.805 102.479 44.7781 100.752 45.4136L101.046 45.9116C101.691 46.9935 102.58 48.3245 103.712 49.9045C104.186 49.1594 104.426 48.285 104.402 47.3971C104.422 47.137 104.396 46.8752 104.326 46.6243C104.276 46.527 104.138 46.4783 103.914 46.4783H103.233H103.081V45.9288H106.715V46.4182H106.555C106.224 46.4129 105.894 46.4475 105.571 46.5213C105.515 46.5613 105.487 46.776 105.487 47.1653C105.346 48.3302 104.845 49.4191 104.057 50.2737L104.452 50.703L104.755 51.0293C104.934 51.2741 105.18 51.4594 105.461 51.5617L106.504 51.6476H106.614V52.137H103.704ZM102.602 50.9091C101.307 49.1868 100.11 47.3892 99.0193 45.5252C98.5321 45.7764 98.1239 46.1624 97.8414 46.6392C97.5588 47.1159 97.4133 47.6642 97.4214 48.2214C97.4086 48.6564 97.48 49.0896 97.6315 49.4963C97.7831 49.903 98.0117 50.2751 98.3044 50.5914C98.5862 50.9009 98.929 51.1459 99.3102 51.3102C99.6915 51.4745 100.103 51.5544 100.516 51.5445C101.257 51.5419 101.981 51.3212 102.602 50.9091ZM100.483 44.9756C100.931 44.6765 101.297 44.2638 101.543 43.7778C101.789 43.2917 101.908 42.7489 101.887 42.2021C101.887 41.1202 101.486 40.5792 100.684 40.5792C99.8827 40.5792 99.4678 41.1173 99.4398 42.1935C99.5081 42.9954 99.768 43.7678 100.197 44.4433L100.483 44.9756Z" fill="#B5A798"/>
<path d="M114.234 19.4534C113.963 18.9251 113.633 18.4288 113.252 17.9737C112.681 17.3051 112.009 16.7298 111.261 16.2683C110.721 15.9174 110.151 15.6155 109.558 15.3661C108.786 15.0519 107.99 14.7985 107.179 14.6081L106.458 14.4547L106.674 14.4096L106.99 14.3375C107.709 14.1804 108.417 13.9723 109.107 13.7149H109.161C109.567 13.5683 109.964 13.3997 110.351 13.2096C111.051 12.869 111.707 12.4448 112.306 11.9464C112.863 11.4733 113.354 10.927 113.766 10.3223C114.051 9.90435 114.289 9.45658 114.477 8.98688C114.694 8.44429 114.845 7.8779 114.928 7.2996C114.975 6.97385 114.999 6.64522 115 6.3161C114.997 5.91937 114.957 5.52375 114.883 5.13411C114.765 4.50155 114.546 3.8922 114.234 3.32953C113.973 2.83809 113.649 2.38306 113.27 1.97609C112.804 1.5003 112.266 1.10137 111.675 0.794096C110.981 0.422362 110.223 0.186563 109.44 0.0993331C109.193 0.0520849 108.944 0.0189475 108.693 8.13618e-05C108.125 0.00255521 107.559 0.0722137 107.008 0.207608C106.486 0.329849 105.981 0.514648 105.503 0.758004C104.972 1.02938 104.474 1.35926 104.016 1.7415C103.345 2.31291 102.768 2.9857 102.304 3.73556C101.954 4.27602 101.652 4.84672 101.403 5.44088C101.091 6.22008 100.841 7.02257 100.655 7.84097C100.601 8.08158 100.547 8.3252 100.493 8.57183C100.37 7.96293 100.217 7.36064 100.033 6.76725C99.8983 6.3161 99.7361 5.86496 99.5649 5.45893C99.3374 4.90294 99.0662 4.36589 98.7539 3.85285C98.5825 3.55936 98.3898 3.27889 98.1773 3.01373C97.8018 2.54467 97.3824 2.11262 96.9248 1.72345C96.4708 1.36807 95.9781 1.06537 95.4561 0.821164C94.8774 0.49871 94.2553 0.261666 93.6089 0.117379C93.1776 0.0408482 92.7404 0.00160447 92.3024 8.13618e-05C91.0383 -0.00634229 89.8014 0.367739 88.7522 1.07381C88.1681 1.44957 87.658 1.92976 87.2474 2.4904C86.9998 2.82338 86.7855 3.18001 86.6077 3.5551C86.3764 4.0583 86.2099 4.58888 86.1121 5.13411C85.9626 5.94837 85.9626 6.78309 86.1121 7.59735C86.2097 8.17787 86.3855 8.74245 86.6347 9.27561C86.7882 9.61115 86.9628 9.93663 87.1573 10.2501L87.2024 10.3223C87.3466 10.5298 87.4997 10.7373 87.6619 10.9539C88.2482 11.673 88.9557 12.2838 89.7524 12.7584C90.296 13.1135 90.8723 13.4157 91.4734 13.6607C92.0411 13.8863 92.5276 14.0487 92.9962 14.1841C93.4647 14.3194 94.0234 14.4547 94.555 14.563C93.947 14.686 93.3455 14.8396 92.7529 15.0232C92.3024 15.1585 91.8518 15.3209 91.4464 15.4924C90.8912 15.7203 90.3549 15.9919 89.8425 16.3044C89.5494 16.4761 89.2693 16.6691 89.0045 16.8819C88.536 17.2578 88.1045 17.6778 87.716 18.1361C87.3608 18.5905 87.0585 19.0839 86.8149 19.6068C86.5027 20.1612 86.2692 20.7564 86.1211 21.3753C86.0447 21.8072 86.0055 22.245 86.004 22.6836C85.9949 23.9485 86.3653 25.187 87.0672 26.2386C87.4506 26.8047 87.9329 27.2968 88.4909 27.6913C88.8234 27.9393 89.1796 28.1539 89.5541 28.332C90.0453 28.5606 90.5628 28.7273 91.095 28.8282C91.9111 28.9782 92.7477 28.9782 93.5638 28.8282C94.1435 28.7301 94.7072 28.554 95.2398 28.3049C95.5749 28.1512 95.8999 27.9764 96.213 27.7816L96.285 27.7364C96.4923 27.5921 96.6995 27.4387 96.9158 27.2763C97.633 26.6918 98.2429 25.9864 98.7179 25.192C99.0726 24.6477 99.3743 24.0706 99.619 23.4686C99.8442 22.9002 100.006 22.4129 100.142 21.9528C100.277 21.4926 100.412 20.9332 100.52 20.4099L100.574 20.6264L100.637 20.9332C100.797 21.6541 101.008 22.3627 101.268 23.0536V23.1077C101.414 23.5106 101.583 23.9052 101.772 24.2897C102.113 24.9879 102.537 25.6422 103.034 26.2386C103.506 26.7968 104.052 27.2885 104.656 27.7003C105.074 27.9824 105.521 28.2183 105.989 28.4041C106.531 28.6204 107.097 28.7719 107.674 28.8553C108.006 28.9028 108.34 28.9269 108.675 28.9275C109.08 28.9289 109.484 28.8926 109.882 28.8192C110.513 28.7038 111.122 28.4875 111.684 28.1786C112.78 27.6138 113.669 26.7169 114.225 25.6161C114.597 24.9214 114.832 24.1618 114.919 23.3784C115.013 22.5512 114.958 21.7138 114.757 20.9061C114.639 20.4032 114.464 19.9157 114.234 19.4534ZM100.953 10.9088C101.066 9.9267 101.244 8.95315 101.484 7.99436C101.666 7.22489 101.907 6.47071 102.205 5.73864C102.422 5.18995 102.688 4.66156 102.998 4.15963C103.418 3.4811 103.941 2.87226 104.548 2.35506C104.957 2.00539 105.405 1.70274 105.881 1.45277C106.302 1.23749 106.746 1.07389 107.206 0.96553C107.693 0.853127 108.192 0.798614 108.693 0.803118C108.924 0.789283 109.155 0.789283 109.386 0.803118C110.071 0.878146 110.734 1.08333 111.342 1.40765C111.859 1.67464 112.33 2.0218 112.738 2.43626C113.071 2.79458 113.356 3.19499 113.585 3.62728C113.846 4.13936 114.019 4.69128 114.099 5.26043C114.165 5.61145 114.198 5.96791 114.198 6.32513C114.199 6.62702 114.178 6.92857 114.135 7.22741C114.059 7.74097 113.923 8.24374 113.73 8.72521C113.565 9.13749 113.357 9.53076 113.108 9.89819C112.737 10.4422 112.294 10.9339 111.792 11.3599C111.24 11.816 110.635 12.2037 109.99 12.5148C109.629 12.6911 109.259 12.8477 108.882 12.984H108.828C108.173 13.2299 107.501 13.4289 106.818 13.5795L106.521 13.6427L106.233 13.7058L105.944 13.778C105.782 13.778 104.602 14.0126 104.214 14.0487C103.98 14.0487 100.907 14.0487 100.907 14.0487C100.907 14.0487 100.907 11.9554 100.907 11.414C100.925 11.2516 100.935 11.0802 100.953 10.9088ZM91.7617 12.8397C91.2092 12.6258 90.6782 12.36 90.1759 12.0456C89.4582 11.6148 88.821 11.0622 88.2927 10.4125C88.1395 10.214 87.9953 10.0065 87.8511 9.80796L87.8061 9.73578C87.6799 9.56434 87.3826 8.95079 87.3556 8.83349C87.1401 8.36572 86.9886 7.87103 86.905 7.36276C86.773 6.64395 86.773 5.90705 86.905 5.18824C86.9926 4.72087 87.1378 4.26623 87.3375 3.83481C87.4974 3.51652 87.6875 3.21437 87.9052 2.93252C88.2579 2.45458 88.6945 2.04489 89.1937 1.72345C90.1135 1.11881 91.1933 0.804494 92.2934 0.821164C92.6862 0.823678 93.0781 0.859902 93.4647 0.929439C94.0308 1.02861 94.5799 1.20785 95.0956 1.46179C95.5648 1.69021 96.0062 1.97176 96.4112 2.30092C96.8292 2.65764 97.2124 3.05343 97.5555 3.48292C97.7419 3.71979 97.9105 3.97011 98.0601 4.23182C98.3383 4.70252 98.5793 5.19426 98.781 5.70255C98.9432 6.09955 99.0963 6.51461 99.2225 6.94771C99.4329 7.63154 99.6014 8.3276 99.7271 9.03199C99.8672 9.8264 99.9664 10.6275 100.024 11.4321V14.0668H97.4294C96.9158 14.0668 96.4022 13.9946 95.8886 13.9224C94.9752 13.7971 94.0719 13.6071 93.1854 13.354C92.7709 13.2547 92.3114 13.0562 91.7617 12.8397ZM99.8712 19.0925C99.7466 20.0072 99.5569 20.9118 99.3036 21.7994C99.1774 22.2415 99.0152 22.7017 98.799 23.243C98.5851 23.7933 98.3196 24.322 98.0061 24.822C97.5731 25.5414 97.0182 26.1796 96.3661 26.7078C96.1679 26.8612 95.9607 27.0056 95.7624 27.15L95.6903 27.1951C95.5191 27.3214 94.9064 27.6101 94.7893 27.6462C94.3222 27.8619 93.8281 28.0137 93.3206 28.0974C92.6027 28.2288 91.8669 28.2288 91.149 28.0974C90.6793 28.0099 90.2223 27.8644 89.7884 27.6643C89.4706 27.504 89.1689 27.3136 88.8874 27.0958C88.4099 26.7428 88.0008 26.3055 87.6799 25.8055C87.0751 24.885 86.7611 23.8034 86.7789 22.7017C86.7812 22.3083 86.8174 21.9158 86.887 21.5287C86.9859 20.9618 87.1649 20.4119 87.4186 19.8956C87.6499 19.4283 87.9341 18.9893 88.2656 18.5872C88.6218 18.1685 89.017 17.7848 89.446 17.4413C89.6826 17.2548 89.9326 17.0859 90.1939 16.936C90.672 16.6473 91.1721 16.3969 91.6896 16.1871C92.0861 16.0247 92.5006 15.8804 92.9331 15.745C93.6161 15.5347 94.3112 15.366 95.0146 15.2397C95.8049 15.0771 96.6059 14.9716 97.4114 14.9239H100.042V17.5135C100.028 18.0417 99.9862 18.5688 99.9163 19.0925H99.8712ZM114.099 23.3333C114.023 24.0154 113.818 24.6768 113.495 25.2822C113.226 25.8003 112.876 26.2724 112.459 26.6808C112.101 27.0112 111.701 27.2933 111.27 27.5199C110.775 27.7914 110.239 27.9804 109.684 28.0793C109.333 28.1453 108.977 28.1785 108.621 28.1786C108.319 28.1791 108.018 28.158 107.719 28.1154C107.204 28.0402 106.698 27.9039 106.215 27.7094C105.8 27.5451 105.404 27.3364 105.034 27.0868C104.491 26.7152 104 26.2721 103.575 25.7695C103.119 25.2166 102.732 24.6107 102.421 23.9649C102.245 23.6036 102.089 23.2331 101.953 22.8551V22.8009C101.707 22.1452 101.508 21.4728 101.358 20.7888L101.295 20.4911L101.232 20.2023L101.16 19.9136C100.993 19.117 100.891 18.3084 100.853 17.4955C100.853 17.2609 100.853 14.8878 100.853 14.8878C100.853 14.8878 104.016 14.8878 104.178 14.8878C105.116 14.9866 106.047 15.1494 106.963 15.3751C107.734 15.5538 108.49 15.7921 109.224 16.0879C109.772 16.3059 110.3 16.5715 110.801 16.8819C111.478 17.2995 112.086 17.8201 112.603 18.4248C112.952 18.8349 113.255 19.2828 113.504 19.7602C113.719 20.1781 113.882 20.6205 113.991 21.0775C114.184 21.8129 114.239 22.5778 114.153 23.3333H114.099Z" fill="#E5E6E7"/>
<path d="M100.204 8.92802C100.108 8.92644 100.016 8.88894 99.9446 8.82255C99.8736 8.75616 99.8286 8.66543 99.8179 8.56734L98.9941 0.452132C98.9951 0.35225 99.0317 0.256225 99.0972 0.182444C99.1626 0.108662 99.2522 0.0623089 99.3488 0.0522593C99.4454 0.0422096 99.5422 0.0691699 99.6207 0.127978C99.6992 0.186786 99.7538 0.273309 99.7741 0.37098L100.598 8.48619C100.608 8.59248 100.576 8.69846 100.511 8.78117C100.445 8.86387 100.351 8.91664 100.247 8.92802H100.204Z" fill="#E5E6E7"/>
<path d="M100.764 8.9262C100.657 8.91482 100.56 8.86207 100.492 8.77938C100.424 8.69669 100.392 8.59073 100.402 8.48446L101.252 0.370914C101.273 0.273263 101.329 0.186758 101.41 0.127962C101.491 0.069166 101.591 0.0422113 101.69 0.0522588C101.79 0.0623064 101.882 0.10865 101.95 0.182417C102.017 0.256183 102.055 0.352188 102.056 0.45205L101.207 8.5656C101.195 8.67173 101.142 8.7691 101.059 8.83661C100.976 8.90411 100.87 8.9363 100.764 8.9262Z" fill="#E5E6E7"/>
</svg>
