<svg width="15" height="15" viewBox="0 0 15 15" fill="none" xmlns="http://www.w3.org/2000/svg">
<g clip-path="url(#clip0)">
<path d="M14.5308 6.56208C14.272 6.56208 14.062 6.77207 14.062 7.03081V12.3386L10.3123 13.8385V8.90569C10.3123 8.64696 10.1023 8.43697 9.84354 8.43697C9.58481 8.43697 9.37482 8.64696 9.37482 8.90569V13.8376L5.62506 12.3377V4.91125L7.79711 5.78026C8.03428 5.87588 8.30989 5.75963 8.40644 5.51871C8.503 5.27873 8.38582 5.00593 8.1449 4.90937L5.33914 3.78632C5.33914 3.78632 5.33914 3.78632 5.3382 3.78632L5.3307 3.7835C5.21914 3.73851 5.09446 3.73851 4.98291 3.7835L4.97447 3.78632C4.97447 3.78632 4.97447 3.78632 4.97353 3.78632L0.294764 5.65839C0.117588 5.72964 0.000407457 5.90119 0.000407457 6.09336V14.5303C0.000407457 14.686 0.0782151 14.8313 0.206645 14.9184C0.28539 14.9719 0.376321 14.9991 0.469128 14.9991C0.528187 14.9991 0.587246 14.9878 0.643492 14.9653L5.15634 13.1607L9.66074 14.9625C9.66074 14.9625 9.66074 14.9625 9.66168 14.9625L9.67012 14.9663C9.78167 15.0113 9.90635 15.0113 10.0179 14.9663L10.0263 14.9625C10.0263 14.9625 10.0263 14.9625 10.0273 14.9625L14.7061 13.0914C14.8823 13.0192 14.9995 12.8476 14.9995 12.6555V7.03081C14.9995 6.77207 14.7895 6.56208 14.5308 6.56208ZM4.68761 12.3377L0.937849 13.8376V6.41022L4.68761 4.91031V12.3377Z" fill="white"/>
<path d="M11.7184 1.875C10.9431 1.875 10.3122 2.5059 10.3122 3.28116C10.3122 4.05643 10.9431 4.68732 11.7184 4.68732C12.4937 4.68732 13.1246 4.05643 13.1246 3.28116C13.1246 2.5059 12.4937 1.875 11.7184 1.875ZM11.7184 3.74988C11.4597 3.74988 11.2497 3.5399 11.2497 3.28116C11.2497 3.02243 11.4597 2.81244 11.7184 2.81244C11.9771 2.81244 12.1871 3.02243 12.1871 3.28116C12.1871 3.5399 11.9771 3.74988 11.7184 3.74988Z" fill="white"/>
<path d="M11.7184 0C9.90917 0 8.43739 1.47178 8.43739 3.28105C8.43739 4.96469 11.0697 7.94669 11.3697 8.28136C11.4588 8.37979 11.5853 8.43697 11.7184 8.43697C11.8516 8.43697 11.9781 8.37979 12.0672 8.28136C12.3671 7.94669 14.9995 4.96469 14.9995 3.28105C14.9995 1.47178 13.5277 0 11.7184 0ZM11.7184 7.25299C10.6947 6.039 9.37483 4.17536 9.37483 3.28105C9.37483 1.98925 10.4266 0.937442 11.7184 0.937442C13.0102 0.937442 14.062 1.98925 14.062 3.28105C14.062 4.17443 12.7421 6.039 11.7184 7.25299Z" fill="white"/>
</g>
<defs>
<clipPath id="clip0">
<rect width="15" height="15" fill="white"/>
</clipPath>
</defs>
</svg>
