<svg width="13" height="9" viewBox="0 0 13 9" fill="none" xmlns="http://www.w3.org/2000/svg">
<path d="M12.4055 4.66023L8.58052 8.48522C8.4809 8.58484 8.31954 8.58484 8.21994 8.48522C8.12033 8.38561 8.12033 8.22424 8.21994 8.12465L11.6097 4.73493H0.495242C0.354291 4.73493 0.240234 4.62088 0.240234 4.47993C0.240234 4.33897 0.354291 4.22492 0.495242 4.22492H11.6097L8.21994 0.835228C8.12033 0.735611 8.12033 0.574245 8.21994 0.474651C8.26974 0.424854 8.335 0.399944 8.40024 0.399944C8.46548 0.399944 8.53072 0.424854 8.58055 0.474651L12.4055 4.29965C12.5051 4.39924 12.5051 4.56061 12.4055 4.66023Z" fill="white"/>
</svg>
