<svg width="13" height="9" viewBox="0 0 13 9" fill="none" xmlns="http://www.w3.org/2000/svg">
<path d="M0.594481 4.66023L4.41948 8.48522C4.5191 8.58484 4.68046 8.58484 4.78006 8.48522C4.87967 8.38561 4.87967 8.22424 4.78006 8.12465L1.39034 4.73493H12.5048C12.6457 4.73493 12.7598 4.62088 12.7598 4.47993C12.7598 4.33897 12.6457 4.22492 12.5048 4.22492H1.39034L4.78006 0.835228C4.87967 0.735611 4.87967 0.574245 4.78006 0.474651C4.73026 0.424854 4.665 0.399944 4.59976 0.399944C4.53452 0.399944 4.46928 0.424854 4.41945 0.474651L0.594458 4.29965C0.494864 4.39924 0.494864 4.56061 0.594481 4.66023Z" fill="white"/>
</svg>
