<svg width="17" height="12" viewBox="0 0 17 12" fill="none" xmlns="http://www.w3.org/2000/svg">
<path d="M0.103771 5.91705L5.41627 11.2295C5.55462 11.3679 5.77875 11.3679 5.91707 11.2295C6.05543 11.0912 6.05543 10.8671 5.91707 10.7287L1.20914 6.02081H16.6458C16.8416 6.02081 17 5.8624 17 5.66663C17 5.47087 16.8416 5.31245 16.6458 5.31245H1.20914L5.91707 0.604552C6.05543 0.466195 6.05543 0.242075 5.91707 0.10375C5.84791 0.0345888 5.75726 -8.58307e-06 5.66665 -8.58307e-06C5.57604 -8.58307e-06 5.48543 0.0345888 5.41623 0.10375L0.103737 5.41625C-0.034586 5.55457 -0.034586 5.77869 0.103771 5.91705Z" fill="white"/>
</svg>
