<svg width="20" height="20" viewBox="0 0 20 20" fill="none" xmlns="http://www.w3.org/2000/svg">
<g clip-path="url(#clip0)">
<path d="M2.51508 2.51508C4.13696 0.893203 6.29332 0 8.58696 0C10.8806 0 13.037 0.893203 14.6588 2.51508C16.2806 4.13691 17.1739 6.29328 17.1739 8.58687C17.1739 10.6839 16.4268 12.6658 15.0593 14.2298L19.8282 18.9987C20.0573 19.2277 20.0573 19.5991 19.8282 19.8282C19.7137 19.9427 19.5636 20 19.4135 20C19.2634 20 19.1132 19.9427 18.9988 19.8282L14.2298 15.0593C12.6659 16.4268 10.6839 17.1738 8.58696 17.1738C6.29328 17.1738 4.13699 16.2806 2.51512 14.6588C0.893282 13.0369 8.01086e-05 10.8805 8.01086e-05 8.58691C8.01086e-05 6.29328 0.893244 4.13691 2.51508 2.51508ZM3.34461 13.8293C6.23528 16.7199 10.9386 16.7199 13.8293 13.8293C16.7199 10.9386 16.7199 6.23523 13.8293 3.34461C12.3838 1.89914 10.4857 1.17664 8.58692 1.17664C6.68863 1.17664 4.78973 1.89949 3.34457 3.34461C0.454025 6.2352 0.454025 10.9386 3.34461 13.8293Z" fill="white"/>
</g>
<defs>
<clipPath id="clip0">
<rect width="20" height="20" fill="white" transform="matrix(-1 0 0 1 20 0)"/>
</clipPath>
</defs>
</svg>
