<svg width="31" height="20" viewBox="0 0 31 20" fill="none" xmlns="http://www.w3.org/2000/svg">
<path d="M0.820908 9.55812L10.1667 0.18312C10.4101 -0.0610401 10.8044 -0.0610401 11.0477 0.18312C11.2911 0.42728 11.2911 0.822788 11.0477 1.06689L2.76547 9.37502H29.9218C30.2662 9.37502 30.5449 9.65457 30.5449 10C30.5449 10.3455 30.2662 10.6251 29.9218 10.6251H2.76547L11.0477 18.9331C11.2911 19.1773 11.2911 19.5728 11.0477 19.8169C10.9261 19.9389 10.7666 20 10.6072 20C10.4478 20 10.2884 19.9389 10.1666 19.8169L0.820848 10.4419C0.577507 10.1978 0.577507 9.80228 0.820908 9.55812Z" fill="white"/>
</svg>
