<svg width="23" height="23" viewBox="0 0 23 23" fill="none" xmlns="http://www.w3.org/2000/svg">
<path d="M18.1707 14.2419C17.7 13.7518 17.1323 13.4897 16.5306 13.4897C15.9338 13.4897 15.3612 13.7469 14.8711 14.237L13.3378 15.7655C13.2116 15.6976 13.0854 15.6345 12.9641 15.5714C12.7894 15.4841 12.6245 15.4016 12.4838 15.3142C11.0475 14.402 9.74219 13.2132 8.49029 11.675C7.88375 10.9083 7.47615 10.263 7.18016 9.60789C7.57805 9.24397 7.94683 8.86549 8.3059 8.50156C8.44177 8.3657 8.57763 8.22498 8.7135 8.08912C9.73248 7.07013 9.73248 5.7503 8.7135 4.73131L7.38881 3.40663C7.23839 3.25621 7.08312 3.10093 6.93755 2.94566C6.64641 2.64481 6.34071 2.33426 6.02531 2.04313C5.55463 1.5773 4.99177 1.32983 4.39978 1.32983C3.8078 1.32983 3.23522 1.5773 2.74999 2.04313C2.74514 2.04798 2.74514 2.04798 2.74029 2.05283L1.0905 3.71718C0.469401 4.33827 0.115182 5.09523 0.0375447 5.9735C-0.078911 7.39038 0.338389 8.71021 0.658642 9.57393C1.44472 11.6944 2.61898 13.6596 4.37067 15.7655C6.49599 18.3032 9.05316 20.3073 11.9743 21.7193C13.0903 22.2482 14.58 22.8741 16.2443 22.9809C16.3462 22.9857 16.4529 22.9906 16.55 22.9906C17.6709 22.9906 18.6122 22.5878 19.3498 21.7872C19.3546 21.7775 19.3643 21.7727 19.3692 21.763C19.6215 21.4573 19.9127 21.1807 20.2184 20.8847C20.427 20.6857 20.6405 20.4771 20.8492 20.2587C21.3295 19.7589 21.5819 19.1767 21.5819 18.5798C21.5819 17.9781 21.3247 17.4007 20.8346 16.9155L18.1707 14.2419ZM19.9078 19.3514C19.903 19.3514 19.903 19.3562 19.9078 19.3514C19.7186 19.5551 19.5245 19.7395 19.3158 19.9433C19.0004 20.2442 18.6802 20.5596 18.3793 20.9138C17.8892 21.4378 17.3118 21.6853 16.5548 21.6853C16.4821 21.6853 16.4044 21.6853 16.3316 21.6805C14.8905 21.5883 13.5513 21.0254 12.5468 20.545C9.80042 19.2155 7.38881 17.3279 5.3848 14.9357C3.73016 12.9414 2.62383 11.0976 1.89113 9.11781C1.43987 7.90958 1.27489 6.96823 1.34767 6.08026C1.39619 5.51253 1.61455 5.04186 2.01729 4.63912L3.67193 2.98448C3.9097 2.76127 4.16202 2.63996 4.40949 2.63996C4.71518 2.63996 4.96265 2.82435 5.11793 2.97962C5.12278 2.98448 5.12763 2.98933 5.13248 2.99418C5.42847 3.27076 5.70991 3.55705 6.0059 3.86275C6.15632 4.01802 6.3116 4.17329 6.46687 4.33342L7.79155 5.6581C8.3059 6.17245 8.3059 6.64798 7.79155 7.16232C7.65084 7.30304 7.51497 7.44376 7.37426 7.57962C6.96666 7.99692 6.57847 8.38511 6.15632 8.76359C6.14662 8.77329 6.13691 8.77815 6.13206 8.78785C5.71476 9.20515 5.7924 9.61274 5.87974 9.88933C5.88459 9.90388 5.88944 9.91844 5.8943 9.933C6.23881 10.7676 6.72404 11.5537 7.4616 12.4902L7.46645 12.495C8.80569 14.1448 10.2177 15.4307 11.7753 16.4157C11.9743 16.5419 12.1781 16.6438 12.3721 16.7408C12.5468 16.8281 12.7118 16.9106 12.8525 16.998C12.8719 17.0077 12.8913 17.0222 12.9108 17.0319C13.0757 17.1144 13.231 17.1533 13.3911 17.1533C13.7939 17.1533 14.0462 16.9009 14.1287 16.8184L15.7882 15.1589C15.9532 14.994 16.2152 14.795 16.5209 14.795C16.8217 14.795 17.0692 14.9843 17.2196 15.1492C17.2245 15.1541 17.2245 15.1541 17.2293 15.1589L19.903 17.8326C20.4027 18.3275 20.4027 18.837 19.9078 19.3514Z" fill="white"/>
<path d="M12.4259 5.4688C13.6972 5.6823 14.8521 6.28399 15.774 7.20593C16.696 8.12787 17.2928 9.28272 17.5112 10.554C17.5645 10.8743 17.8411 11.0975 18.1565 11.0975C18.1953 11.0975 18.2293 11.0926 18.2681 11.0878C18.6272 11.0296 18.865 10.6899 18.8067 10.3308C18.5447 8.79264 17.8169 7.39032 16.7057 6.27914C15.5945 5.16796 14.1922 4.44011 12.654 4.17808C12.2949 4.11985 11.9601 4.35762 11.897 4.71184C11.8339 5.06606 12.0668 5.41057 12.4259 5.4688Z" fill="white"/>
<path d="M22.9648 10.1416C22.533 7.60872 21.3393 5.30387 19.5051 3.46969C17.6709 1.63551 15.3661 0.441843 12.8331 0.0099868C12.4789 -0.0530934 12.1441 0.189523 12.081 0.543742C12.0228 0.902814 12.2606 1.23762 12.6196 1.3007C14.8808 1.68404 16.9431 2.7564 18.5832 4.39163C20.2232 6.03172 21.2908 8.09396 21.6741 10.3551C21.7275 10.6754 22.004 10.8986 22.3194 10.8986C22.3583 10.8986 22.3922 10.8937 22.4311 10.8889C22.7853 10.8355 23.0279 10.4959 22.9648 10.1416Z" fill="white"/>
</svg>
