<svg width="19" height="19" viewBox="0 0 19 19" fill="none" xmlns="http://www.w3.org/2000/svg">
<path d="M9.50237 0H9.49763C4.25956 0 0 4.26075 0 9.5C0 11.5781 0.66975 13.5043 1.80856 15.0682L0.624625 18.5974L4.27619 17.4301C5.77838 18.4253 7.57031 19 9.50237 19C14.7404 19 19 14.7381 19 9.5C19 4.26194 14.7404 0 9.50237 0Z" fill="#4CAF50"/>
<path d="M15.0302 13.4153C14.801 14.0625 13.8913 14.5993 13.1658 14.756C12.6694 14.8617 12.021 14.946 9.83841 14.0412C7.04659 12.8845 5.24872 10.0476 5.10859 9.86353C4.97441 9.67946 3.98047 8.36134 3.98047 6.99809C3.98047 5.63484 4.67278 4.97103 4.95184 4.68603C5.18103 4.45209 5.55984 4.34521 5.92322 4.34521C6.04078 4.34521 6.14647 4.35115 6.24147 4.3559C6.52053 4.36778 6.66066 4.3844 6.84472 4.82497C7.07391 5.37715 7.63203 6.7404 7.69853 6.88053C7.76622 7.02065 7.83391 7.21065 7.73891 7.39472C7.64984 7.58472 7.57147 7.66903 7.43134 7.83053C7.29122 7.99203 7.15822 8.11553 7.01809 8.2889C6.88984 8.43971 6.74497 8.60122 6.90647 8.88028C7.06797 9.1534 7.62609 10.0642 8.44784 10.7957C9.50828 11.7398 10.368 12.0414 10.6756 12.1697C10.9048 12.2647 11.1779 12.2421 11.3453 12.064C11.5579 11.8348 11.8203 11.4548 12.0875 11.0807C12.2775 10.8123 12.5174 10.7791 12.7692 10.8741C13.0257 10.9632 14.383 11.6341 14.662 11.773C14.9411 11.9132 15.1252 11.9797 15.1928 12.0972C15.2593 12.2148 15.2593 12.767 15.0302 13.4153Z" fill="#FAFAFA"/>
</svg>
