<svg width="210" height="33" viewBox="0 0 210 33" fill="none" xmlns="http://www.w3.org/2000/svg">
<g opacity="0.5">
<path d="M28.91 6.35486C29.6766 7.35932 30.3256 8.45058 30.8438 9.60673L16.1436 20.5889L10 16.6859V11.9904L16.1436 15.8934L28.91 6.35486Z" fill="white"/>
<path d="M3.72827 16.3545C3.72827 16.1438 3.73334 15.9345 3.74348 15.7264L0.0202772 15.5415C0.00760464 15.8112 4.49931e-06 16.0835 4.49931e-06 16.3583C-0.00157962 18.5055 0.415154 20.6318 1.22631 22.6153C2.03746 24.5989 3.22706 26.4006 4.72687 27.9171L7.36783 25.2419C6.21333 24.0766 5.29746 22.6915 4.67286 21.1663C4.04826 19.6411 3.72725 18.0058 3.72827 16.3545Z" fill="white"/>
<path d="M16.1383 3.77747C16.3461 3.77747 16.5526 3.78518 16.7579 3.79545L16.9442 0.0208629C16.6773 0.00801981 16.4086 0.00159904 16.1383 0.00159904C14.0186 -0.00102064 11.9194 0.420712 9.96101 1.24258C8.00266 2.06445 6.2238 3.27027 4.72656 4.7908L7.36752 7.4673C8.51741 6.29688 9.88425 5.36835 11.3895 4.73512C12.8947 4.10189 14.5085 3.77643 16.1383 3.77747Z" fill="white"/>
<path d="M16.1392 28.9318C15.9314 28.9318 15.7248 28.9318 15.5183 28.9151L15.332 32.6884C15.5998 32.7021 15.8689 32.709 16.1392 32.709C18.258 32.7112 20.3562 32.2892 22.3135 31.4671C24.2708 30.645 26.0485 29.439 27.5446 27.9185L24.9087 25.2433C23.7586 26.4131 22.3919 27.3411 20.887 27.9741C19.3821 28.6071 17.7686 28.9326 16.1392 28.9318Z" fill="white"/>
<path d="M23.1332 5.97207L26.2709 3.6282C23.403 1.27465 19.8231 -0.0065332 16.1328 2.50536e-05V3.77718C18.6317 3.77404 21.0726 4.53938 23.1332 5.97207Z" fill="white"/>
<path d="M32.2761 16.3545C32.2781 15.3719 32.1933 14.391 32.0226 13.4237L28.5491 16.018C28.5491 16.1298 28.5491 16.2415 28.5491 16.3545C28.55 18.1118 28.1865 19.8497 27.4823 21.4555C26.778 23.0613 25.7486 24.4992 24.4609 25.676L26.9663 28.4823C28.6404 26.9506 29.9782 25.0795 30.8929 22.9903C31.8077 20.901 32.2789 18.6402 32.2761 16.3545Z" fill="white"/>
<path d="M16.1386 28.9318C14.4045 28.9324 12.6896 28.5639 11.1049 27.8502C9.52028 27.1365 8.10119 26.0934 6.93956 24.7886L4.17188 27.3264C5.68303 29.0233 7.52923 30.3793 9.59076 31.3066C11.6523 32.2338 13.8831 32.7116 16.1386 32.7089V28.9318Z" fill="white"/>
<path d="M7.81645 7.0329L5.31235 4.22668C3.63776 5.75806 2.29948 7.62906 1.3843 9.71834C0.469132 11.8076 -0.00249507 14.0685 9.92661e-06 16.3544H3.72828C3.72751 14.5972 4.09104 12.8593 4.79529 11.2535C5.49955 9.64775 6.52883 8.20981 7.81645 7.0329Z" fill="white"/>
<path d="M93.1293 9.35282L97.7468 5.94421H82.293V26.427H97.7468V23.0184H86.7026V17.7717H96.1238V14.3631H86.7026V9.35282H93.1293Z" fill="white"/>
<path d="M71.8972 13.9236H66.532V9.35147H75.0947L79.7094 5.9325H62.125V26.4153H71.3297C76.4903 26.4153 79.452 24.0717 79.452 19.9845C79.452 16.0744 76.7694 13.9236 71.8972 13.9236ZM71.1312 23.0056H66.532V17.3301H71.1312C73.9224 17.3301 75.2311 18.2812 75.2311 20.1679C75.2311 22.0545 73.8386 23.0056 71.1312 23.0056Z" fill="white"/>
<path d="M109.107 5.94128H100.695V26.424H105.104V20.6216H109.107C114.474 20.6216 117.794 17.7919 117.794 13.2705C117.794 8.74923 114.474 5.94128 109.107 5.94128ZM109.014 17.2104H105.104V9.35249H109.014C111.837 9.35249 113.395 10.7487 113.395 13.283C113.395 15.8173 111.837 17.2104 109.014 17.2104Z" fill="white"/>
<path d="M55.5071 21.5902C54.3681 22.2082 53.092 22.5282 51.7969 22.5206C47.9205 22.5206 45.1084 19.7477 45.1084 15.9294C45.1084 12.111 47.9205 9.33209 51.7969 9.33209C53.1948 9.3083 54.5637 9.73303 55.7036 10.5443L58.7878 8.2684L58.5792 8.11991C56.7801 6.53499 54.3762 5.69556 51.6246 5.69556C48.6401 5.69556 45.9339 6.70166 44.0017 8.53205C43.0247 9.47449 42.2521 10.6086 41.7318 11.8636C41.2116 13.1186 40.9549 14.4675 40.978 15.8263C40.9573 17.1989 41.2128 18.5616 41.7292 19.8331C42.2456 21.1046 43.0123 22.2587 43.9836 23.2267C45.9248 25.1298 48.625 26.1783 51.5883 26.1783C54.6846 26.1783 57.3909 25.0964 59.2233 23.1267L56.4626 21.066L55.5071 21.5902Z" fill="white"/>
<path d="M135.277 13.9236H129.914V9.35147H141.439V5.9325H125.504V26.4153H134.697C139.857 26.4153 142.819 24.0717 142.819 19.9845C142.831 16.0744 140.149 13.9236 135.277 13.9236ZM134.511 23.0056H129.914V17.3301H134.511C137.302 17.3301 138.61 18.2812 138.61 20.1679C138.61 22.0545 137.23 23.0056 134.511 23.0056Z" fill="white"/>
<path d="M192.947 26.386H188.477V5.9032H192.947V14.5061H195.38L201.95 5.9032H207.016L199.223 15.6471L208.272 26.386H202.341L195.69 18.3303H192.947V26.386Z" fill="white"/>
<path d="M159.058 22.4934H149.602L147.999 26.4709H143.242L152.111 5.98816H156.867L165.592 26.4709H160.661L159.058 22.4934ZM157.577 18.7821L154.358 10.827L151.121 18.7821H157.577Z" fill="white"/>
<path d="M171.613 5.98816V14.5414H180.863V5.98816H185.472V26.4709H180.863V18.4H171.613V26.4709H167.004V5.98816H171.613Z" fill="white"/>
</g>
</svg>
